# xmcd
#
# Track frame offsets:
#	150
#	12996
#	25566
#	42247
#	52557
#	65601
#	78053
#	93067
#	107015
#	119847
#	133099
#	148226
#	160798
#	173830
#
# Disc length: 2535 seconds
#
# Revision: 1
# Processed by: cddbd v1.5.2PL0 Copyright (c) Steve Scherf et al.
# Submitted via: EasyCDDAExtractor 10.2.0.1
#
DISCID=ac09e50e
DTITLE=Trio Pedra Azul - Para Dançar
DYEAR=2007
DGENRE=Sertanejo
TTITLE0=Boazuda
TTITLE1=Doidão por Você
TTITLE2=Primavera
TTITLE3=Churrasco de Paixão
TTITLE4=Que Pescar que Nada
TTITLE5=Anel do Eno
TTITLE6=É só Alegria
TTITLE7=Gabriela
TTITLE8=Macaco Velho
TTITLE9=Na Sola da Bota
TTITLE10=Secretária
TTITLE11=Quando ela Quer
TTITLE12=As Andorinhas
TTITLE13=Chance
EXTD=
EXTT0=
EXTT1=
EXTT2=
EXTT3=
EXTT4=
EXTT5=
EXTT6=
EXTT7=
EXTT8=
EXTT9=
EXTT10=
EXTT11=
EXTT12=
EXTT13=
PLAYORDER=
